<?xml version="1.0" encoding="utf-8"?>
<!-- Generator: Adobe Illustrator 27.0.1, SVG Export Plug-In . SVG Version: 6.00 Build 0)  -->
<svg version="1.1" id="Layer_1" xmlns="http://www.w3.org/2000/svg" xmlns:xlink="http://www.w3.org/1999/xlink" x="0px" y="0px"
	 viewBox="0 0 433.41 436.24" style="enable-background:new 0 0 433.41 436.24;" xml:space="preserve">
<style type="text/css">
	.st0{fill:none;stroke:#000000;stroke-width:15;stroke-miterlimit:10;}
	.st1{fill:none;stroke:#000000;stroke-width:20;stroke-miterlimit:10;}
	.st2{stroke:#000000;stroke-miterlimit:10;}
	.st3{fill:none;}
	.st4{stroke:#000000;stroke-width:2;stroke-miterlimit:10;}
	.st5{font-family:'TwCenMT-Regular';}
	.st6{font-size:50px;}
	.st7{letter-spacing:35;}
	.st8{stroke:#000000;stroke-width:3;stroke-miterlimit:10;}
</style>
<polygon class="st0" points="74.36,150.43 218.52,82.25 361.37,150.43 361.37,296.53 217.87,369.26 74.36,296.53 "/>
<polyline class="st1" points="74.36,150.43 217.87,225.76 361.37,150.43 "/>
<line class="st1" x1="217.87" y1="225.76" x2="217.87" y2="369.26"/>
<path class="st0" d="M386.69,240.99"/>
<path class="st0" d="M472.09,577.94"/>
<circle class="st2" cx="289.3" cy="261.79" r="9.37"/>
<circle class="st2" cx="119.34" cy="217.72" r="9.37"/>
<circle class="st2" cx="172.37" cy="245.36" r="9.37"/>
<circle class="st2" cx="119.34" cy="280.54" r="9.37"/>
<circle class="st2" cx="172.37" cy="306.88" r="9.37"/>
<rect x="147.32" y="130.96" class="st3" width="31.34" height="38.94"/>
<text transform="matrix(1 0 0 1 147.3232 162.6593)" class="st4 st5 st6 st7">A</text>
<rect x="213.29" y="132.65" class="st3" width="14.21" height="35.56"/>
<text transform="matrix(1 0 0 1.04 213.2887 164.348)" class="st8 st5 st6 st7">l</text>
<rect x="265.72" y="132.65" class="st3" width="14.21" height="35.56"/>
<text transform="matrix(1 0 0 1.04 265.7163 164.348)" class="st8 st5 st6 st7">l</text>
</svg>
